Coordinates
version=1
nRows=13
nColumns=36
inDegrees=yes

Units are S.I. units (second, meters, Newtons, ...)
If the header above contains a line with 'inDegrees', this indicates whether rotational values are in degrees (yes) or radians (no).

endheader
time	pelvis_tilt	pelvis_list	pelvis_rotation	pelvis_tx	pelvis_ty	pelvis_tz	hip_flexion_r	hip_adduction_r	hip_rotation_r	knee_angle_r	knee_angle_r_beta	ankle_angle_r	subtalar_angle_r	mtp_angle_r	hip_flexion_l	hip_adduction_l	hip_rotation_l	knee_angle_l	knee_angle_l_beta	ankle_angle_l	subtalar_angle_l	mtp_angle_l	lumbar_extension	lumbar_bending	lumbar_rotation	arm_flex_r	arm_add_r	arm_rot_r	elbow_flex_r	pro_sup_r	arm_flex_l	arm_add_l	arm_rot_l	elbow_flex_l	pro_sup_l
      0.35000000	      0.22195092	     -2.82565986	      0.21741583	      0.20723892	      0.95849231	     -0.21168376	      0.20094810	      7.72215709	      8.63004061	      8.11796892	      0.14168529	      5.70542044	    -17.05081440	     -6.97810833	     24.03895208	     -4.89665391	     -1.79239755	     51.32817461	      0.89584565	     -0.16481086	    -15.33813417	     -6.97810833	     -7.53372622	      2.82751056	      3.60218885	     -0.15580306	     -7.49024189	     -5.26270893	     32.96240313	    111.22557303	      3.96380419	     -4.64092793	     -2.64733394	     24.86550659	    106.58016960
      0.36000000	      0.46694190	     -2.58820842	      0.12716786	      0.21854656	      0.95915429	     -0.21129709	     -1.20565386	      7.43672346	      8.68792804	      7.48168773	      0.13058008	      6.40053969	    -16.43089858	     -6.99046247	     24.49231661	     -4.68782835	     -1.87737026	     48.23777077	      0.84190792	     -0.34769022	    -15.31974904	     -6.99046247	     -8.04582434	      2.14689168	      4.00909599	      0.45435666	     -7.79475724	     -4.06062732	     33.39723566	    111.28806624	      4.03498088	     -4.64575473	     -3.29613865	     24.85312301	    106.43463535
      0.37000000	      0.44878026	     -2.32227399	      0.02848696	      0.22984905	      0.95907344	     -0.21090270	     -2.25079938	      7.12684257	      8.75883586	      6.96432174	      0.12155034	      6.97108142	    -16.05650204	     -6.99893117	     25.14580335	     -4.42428850	     -1.88077138	     45.02106474	      0.78576581	     -0.57964805	    -15.06575675	     -6.99893117	     -8.23071101	      1.41625250	      4.34590915	      1.04591017	     -7.97430788	     -3.21338341	     33.79966117	    111.32015594	      4.00185928	     -4.71776338	     -3.80120852	     24.84678949	    106.31625724
      0.38000000	      0.66223034	     -2.18092497	     -0.05991052	      0.24126411	      0.95896457	     -0.21053633	     -3.55664604	      6.95233017	      8.78475641	      6.45635884	      0.11268472	      7.71289273	    -15.44283741	     -7.01185840	     25.41152025	     -4.33315254	     -1.96893801	     41.60521001	      0.72614790	     -0.99321920	    -14.90654385	     -7.01185840	     -8.68003844	      0.83355467	      4.61861838	      1.73490312	     -8.29071859	     -1.99993756	     34.10860715	    111.31326929	      3.97041877	     -4.74160396	     -4.56867019	     24.94366475	    106.13484418
      0.39000000	      0.70066514	     -2.03594596	     -0.17395904	      0.25269734	      0.95829329	     -0.21019587	     -4.57960658	      6.75505973	      8.55277161	      6.14200386	      0.10719819	      8.84349870	    -14.27220344	     -7.05869246	     25.76201956	     -4.20336936	     -1.95076582	     38.05372130	      0.66416273	     -1.54730662	    -14.68224376	     -7.05869246	     -8.90314752	      0.22399398	      4.47546723	      2.82533563	     -8.63832778	      0.26898771	     33.90140084	    110.92544982	      3.53591116	     -4.70666904	     -6.41711977	     25.61544530	    105.80179932
      0.40000000	      0.56694105	     -2.08424726	     -0.30466837	      0.26412215	      0.95698598	     -0.20968487	     -5.41141462	      6.81775415	      8.73782172	      5.82898840	      0.10173504	      9.20388668	    -14.27734326	     -7.06220743	     26.28360029	     -4.33433438	     -1.88834805	     34.57794174	      0.60349893	     -1.76971629	    -13.87318881	     -7.06220743	     -8.92007555	     -0.14497518	      4.83259436	      3.36295357	     -8.74375500	      0.48186608	     34.33099908	    110.94212216	      3.48638855	     -4.78246201	     -6.57174317	     25.54030617	    105.77357099
      0.41000000	      1.01923905	     -1.88841148	     -0.52976516	      0.27588637	      0.95641352	     -0.20907349	     -7.06131351	      6.55701590	      8.93543245	      5.21078909	      0.09094543	      9.85546356	    -13.95920039	     -7.07101209	     25.83912817	     -4.29249301	     -2.22702836	     30.70579408	      0.53591721	     -2.17796240	    -12.78479651	     -7.07101209	     -9.62065112	     -0.85451571	      5.25677189	      4.00701429	     -8.92964394	      1.18370708	     34.76506470	    110.96527418	      3.58138068	     -4.88913290	     -6.98499329	     25.52926600	    105.69065169
      0.42000000	      0.91947626	     -2.02046891	     -0.72906977	      0.28751961	      0.95462525	     -0.20853674	     -7.93257723	      6.68129985	      9.10891377	      4.92995431	      0.08604393	     10.30317820	    -13.78736699	     -7.07469688	     26.10117342	     -4.54217895	     -2.15572343	     27.09322650	      0.47286601	     -2.35630190	    -11.81479961	     -7.07469688	     -9.65856011	     -1.16429416	      5.58511382	      4.59441236	     -9.07813021	      1.54198229	     35.09357152	    110.99109218	      3.45006191	     -4.97850023	     -7.20529099	     25.52356461	    105.64505113
      0.43000000	      1.24434255	     -1.87687684	     -0.98925354	      0.29939320	      0.95338664	     -0.20801064	     -9.38224786	      6.44683720	      9.28818316	      4.45845083	      0.07781465	     10.99915383	    -13.40499024	     -7.08019530	     25.61059593	     -4.52459078	     -2.28972635	     23.17094494	      0.40440928	     -2.62436370	    -10.42821298	     -7.08019530	    -10.19060204	     -1.81840074	      5.96743931	      5.27387441	     -9.22042809	      2.22522028	     35.38513140	    111.03197635	      3.44553089	     -5.11529413	     -7.58957944	     25.61394790	    105.56933031
      0.44000000	      1.59345180	     -1.88646120	     -1.22746044	      0.31145497	      0.95189791	     -0.20762681	    -10.81103868	      6.34294182	      8.86139562	      4.07030931	      0.07104030	     12.33918152	    -11.64871609	     -7.10627160	     25.10010879	     -4.69273699	     -2.50680645	     19.47445161	      0.33989330	     -2.36282058	     -8.92390265	     -7.10627160	    -10.74651387	     -2.33499496	      5.83904570	      6.40255714	     -9.50482272	      4.38452488	     35.10639890	    110.91945886	      2.97548963	     -5.11783396	     -9.10572542	     26.31591642	    105.36817216
      0.45000000	      1.73664612	     -1.93324786	     -1.54058632	      0.32342771	      0.94997022	     -0.20719143	    -11.97737735	      6.29940606	      9.01129837	      3.76218645	      0.06566254	     12.91513766	    -11.44305221	     -7.11395685	     24.71749692	     -4.87922112	     -2.44734819	     15.80234954	      0.27580303	     -2.38808283	     -7.81047878	     -7.11395685	    -11.06236095	     -2.79403999	      6.16099352	      7.06787776	     -9.57365991	      4.81016576	     35.33883774	    110.87397099	      2.85881491	     -5.20654690	     -9.49363785	     26.39226007	    105.34351916
      0.46000000	      1.92574899	     -1.96417918	     -1.85807255	      0.33549222	      0.94799013	     -0.20682009	    -13.21326502	      6.20202075	      9.08570317	      3.43239278	      0.05990656	     13.56059603	    -10.80819703	     -7.12517824	     24.21568657	     -5.06186095	     -2.26599560	     12.25520816	      0.21389373	     -2.22863467	     -6.76969245	     -7.12517824	    -11.45280441	     -3.28678985	      6.37380338	      7.80679845	     -9.67791808	      5.56175609	     35.48988140	    110.81924160	      2.65381086	     -5.29862032	    -10.11578516	     26.59784808	    105.31160835
      0.47000000	      1.96491619	     -2.04661681	     -2.17466435	      0.34758625	      0.94565650	     -0.20651520	    -14.23379066	      6.16876989	      9.19970031	      3.20982357	      0.05602199	     14.20233952	    -10.50534011	     -7.13137342	     23.86628855	     -5.30012118	     -1.84570163	      8.99025850	      0.15690961	     -1.98474822	     -5.91149843	     -7.13137342	    -11.64790233	     -3.72419756	      6.68888145	      8.41863948	     -9.74508286	      6.04699186	     35.62697491	    110.80247224	      2.51115806	     -5.38421471	    -10.53487943	     26.68835068	    105.28190091
